<svg width="256" height="249" viewBox="0 0 256 249" fill="none" xmlns="http://www.w3.org/2000/svg">
<g clip-path="url(#clip0_30_3)">
<rect width="255.351" height="248.241" transform="translate(0 0.277405)" fill="white"/>
<ellipse cx="127.675" cy="124.398" rx="127.675" ry="118.121" fill="#2C0C88"/>
<path d="M144.266 105.08C143.903 101.413 142.342 98.5648 139.584 96.5345C136.827 94.5042 133.084 93.489 128.357 93.489C125.145 93.489 122.433 93.9436 120.221 94.8527C118.009 95.7315 116.312 96.9587 115.13 98.5345C113.978 100.11 113.403 101.898 113.403 103.898C113.342 105.565 113.69 107.019 114.448 108.262C115.236 109.504 116.312 110.58 117.675 111.489C119.039 112.368 120.615 113.141 122.403 113.807C124.19 114.444 126.1 114.989 128.13 115.444L136.493 117.444C140.554 118.353 144.281 119.565 147.675 121.08C151.069 122.595 154.009 124.459 156.493 126.671C158.978 128.883 160.903 131.489 162.266 134.489C163.66 137.489 164.372 140.928 164.403 144.807C164.372 150.504 162.918 155.444 160.039 159.625C157.19 163.777 153.069 167.004 147.675 169.307C142.312 171.58 135.842 172.716 128.266 172.716C120.751 172.716 114.206 171.565 108.63 169.262C103.084 166.959 98.7511 163.55 95.6298 159.034C92.5389 154.489 90.9177 148.868 90.7662 142.171H109.812C110.024 145.292 110.918 147.898 112.493 149.989C114.1 152.05 116.236 153.61 118.903 154.671C121.6 155.701 124.645 156.216 128.039 156.216C131.372 156.216 134.266 155.731 136.721 154.762C139.206 153.792 141.13 152.444 142.493 150.716C143.857 148.989 144.539 147.004 144.539 144.762C144.539 142.671 143.918 140.913 142.675 139.489C141.463 138.065 139.675 136.853 137.312 135.853C134.978 134.853 132.115 133.944 128.721 133.125L118.584 130.58C110.736 128.671 104.539 125.686 99.9935 121.625C95.448 117.565 93.1904 112.095 93.2207 105.216C93.1904 99.5799 94.6904 94.6557 97.7207 90.4436C100.781 86.2315 104.978 82.9436 110.312 80.5799C115.645 78.2163 121.706 77.0345 128.493 77.0345C135.403 77.0345 141.433 78.2163 146.584 80.5799C151.766 82.9436 155.797 86.2315 158.675 90.4436C161.554 94.6557 163.039 99.5345 163.13 105.08H144.266Z" fill="#F8EBEB"/>
</g>
<defs>
<clipPath id="clip0_30_3">
<rect width="255.351" height="248.241" fill="white" transform="translate(0 0.277405)"/>
</clipPath>
</defs>
</svg>
